<!--?xml version="1.0" standalone="no"?-->
              <svg id="sw-js-blob-svg" viewBox="0 0 100 100" xmlns="http://www.w3.org/2000/svg" version="1.1">
                    <defs> 
                        <linearGradient id="sw-gradient" x1="0" x2="1" y1="1" y2="0">
                            <stop id="stop1" stop-color="rgba(237.343, 205.833, 40.632, 1)" offset="0%"></stop>
                            <stop id="stop2" stop-color="rgba(255, 63.985, 63.985, 1)" offset="100%"></stop>
                        </linearGradient>
                    </defs>
                <path fill="url(#sw-gradient)" d="M13.9,-22.6C16.3,-17.4,15.2,-11,16.4,-5.7C17.6,-0.4,21,3.8,22.6,9.9C24.1,16,23.7,24.1,19.6,27.1C15.6,30.1,7.8,28,0.3,27.6C-7.1,27.1,-14.2,28.3,-20.1,25.8C-25.9,23.4,-30.5,17.4,-33.3,10.5C-36,3.5,-37,-4.4,-33.7,-9.8C-30.3,-15.2,-22.8,-18.1,-16.5,-22C-10.1,-25.8,-5.1,-30.7,0.3,-31.2C5.8,-31.7,11.5,-27.8,13.9,-22.6Z" width="100%" height="100%" transform="translate(50 50)" stroke-width="0" style="transition: all 0.3s ease 0s;" stroke="url(#sw-gradient)"></path>
              </svg>