<!--?xml version="1.0" standalone="no"?-->
              <svg id="sw-js-blob-svg" viewBox="0 0 100 100" xmlns="http://www.w3.org/2000/svg" version="1.1">
                    <defs> 
                        <linearGradient id="sw-gradient" x1="0" x2="1" y1="1" y2="0">
                            <stop id="stop1" stop-color="rgba(42.215, 188.432, 255, 1)" offset="0%"></stop>
                            <stop id="stop2" stop-color="rgba(255, 0, 185.222, 1)" offset="100%"></stop>
                        </linearGradient>
                    </defs>
                <path fill="url(#sw-gradient)" d="M16.5,-31.2C18.7,-27.4,16,-17.5,20.5,-11.3C24.9,-5.1,36.6,-2.5,40.6,2.3C44.6,7.2,40.9,14.3,33.9,16.1C26.9,18,16.6,14.5,10.4,14.8C4.2,15.1,2.1,19.3,-3.1,24.7C-8.3,30.1,-16.6,36.7,-20,34.7C-23.4,32.7,-21.8,22.2,-18.9,15C-16,7.8,-11.8,3.9,-14.3,-1.5C-16.9,-6.9,-26.3,-13.7,-26.3,-15.9C-26.3,-18,-16.9,-15.5,-10.9,-17.1C-5,-18.8,-2.5,-24.8,2.3,-28.8C7.2,-32.9,14.3,-35.1,16.5,-31.2Z" width="100%" height="100%" transform="translate(50 50)" stroke-width="0" style="transition: all 0.3s ease 0s;" stroke="url(#sw-gradient)"></path>
              </svg>