<!--?xml version="1.0" standalone="no"?-->
              <svg id="sw-js-blob-svg" viewBox="0 0 100 100" xmlns="http://www.w3.org/2000/svg" version="1.1">
                    <defs> 
                        <linearGradient id="sw-gradient" x1="0" x2="1" y1="1" y2="0">
                            <stop id="stop1" stop-color="rgba(171.795, 255, 235.93, 1)" offset="0%"></stop>
                            <stop id="stop2" stop-color="rgba(0, 166.758, 122.21, 1)" offset="100%"></stop>
                        </linearGradient>
                    </defs>
                <path fill="url(#sw-gradient)" d="M21.6,-35.4C27.1,-34.3,30.1,-26.7,28.8,-19.7C27.4,-12.7,21.7,-6.4,19.9,-1.1C18,4.2,20,8.5,21.5,15.6C22.9,22.6,23.7,32.6,20,31.5C16.4,30.5,8.2,18.4,1.7,15.4C-4.7,12.4,-9.4,18.4,-10.8,18.2C-12.2,17.9,-10.3,11.4,-10.4,7.3C-10.5,3.2,-12.5,1.6,-12.9,-0.2C-13.3,-2.1,-12.1,-4.2,-10.2,-5C-8.2,-5.9,-5.6,-5.4,-3.7,-8.7C-1.9,-12,-1,-19,3.5,-25.1C8.1,-31.3,16.1,-36.5,21.6,-35.4Z" width="100%" height="100%" transform="translate(50 50)" stroke-width="0" style="transition: all 0.3s ease 0s;" stroke="url(#sw-gradient)"></path>
              </svg>