<!--?xml version="1.0" standalone="no"?-->
              <svg id="sw-js-blob-svg" viewBox="0 0 100 100" xmlns="http://www.w3.org/2000/svg" version="1.1">
                    <defs> 
                        <linearGradient id="sw-gradient" x1="0" x2="1" y1="1" y2="0">
                            <stop id="stop1" stop-color="rgba(0, 212.326, 255, 1)" offset="0%"></stop>
                            <stop id="stop2" stop-color="rgba(0, 66.508, 255, 1)" offset="100%"></stop>
                        </linearGradient>
                    </defs>
                <path fill="url(#sw-gradient)" d="M17.4,-32.9C20.9,-28.1,21,-20.2,21.1,-14.1C21.3,-8.1,21.4,-4.1,23.4,1.1C25.4,6.4,29.2,12.7,29.5,19.5C29.9,26.4,26.8,33.6,21.3,38.7C15.8,43.7,7.9,46.4,-0.1,46.6C-8.1,46.8,-16.2,44.5,-19.4,38.1C-22.6,31.8,-21,21.5,-21.4,14.5C-21.8,7.4,-24.2,3.7,-24,0.1C-23.8,-3.5,-21,-7,-18.7,-10.7C-16.4,-14.4,-14.7,-18.4,-11.6,-23.5C-8.6,-28.6,-4.3,-34.8,1.3,-37.1C6.9,-39.4,13.9,-37.8,17.4,-32.9Z" width="100%" height="100%" transform="translate(50 50)" stroke-width="0" style="transition: all 0.3s ease 0s;" stroke="url(#sw-gradient)"></path>
              </svg>